<svg width="329" height="268" viewBox="0 0 329 268" fill="none" xmlns="http://www.w3.org/2000/svg">
<g clip-path="url(#clip0_1675_520)">
<rect x="-17" y="41.5029" width="96" height="9.44356" transform="rotate(-39.8404 -17 41.5029)" fill="#EB4A2F"/>
<rect x="189.409" y="274.192" width="189.046" height="9.44356" transform="rotate(-39.8404 189.409 274.192)" fill="#EB4A2F"/>
<rect x="-11" y="75.5029" width="132.208" height="9.44356" transform="rotate(-39.8404 -11 75.5029)" fill="#EB4A2F"/>
<rect x="225" y="283.503" width="158.232" height="9.44356" transform="rotate(-39.8404 225 283.503)" fill="#EB4A2F"/>
<rect x="-5" y="109.502" width="187.341" height="9.44356" transform="rotate(-39.8404 -5 109.502)" fill="#EB4A2F"/>
<rect x="231" y="317.503" width="187.341" height="9.44356" transform="rotate(-39.8404 231 317.503)" fill="#EB4A2F"/>
<rect x="-38.3105" y="161.71" width="210.21" height="9.44356" transform="rotate(51.5435 -38.3105 161.71)" fill="#EB4A2F"/>
<rect x="-16.605" y="145" width="210.21" height="9.44356" transform="rotate(51.5435 -16.605 145)" fill="#EB4A2F"/>
<rect x="5.10059" y="128.291" width="210.21" height="9.44356" transform="rotate(51.5435 5.10059 128.291)" fill="#EB4A2F"/>
<rect x="26.8057" y="111.581" width="210.21" height="9.44356" transform="rotate(51.5435 26.8057 111.581)" fill="#EB4A2F"/>
<rect x="48.5107" y="94.8711" width="210.21" height="9.44356" transform="rotate(51.5435 48.5107 94.8711)" fill="#EB4A2F"/>
<rect x="70.2163" y="78.1621" width="210.21" height="9.44356" transform="rotate(51.5435 70.2163 78.1621)" fill="#EB4A2F"/>
<rect x="91.9219" y="61.4531" width="210.21" height="9.44356" transform="rotate(51.5435 91.9219 61.4531)" fill="#EB4A2F"/>
<rect x="113.627" y="44.7432" width="210.21" height="9.44356" transform="rotate(51.5435 113.627 44.7432)" fill="#EB4A2F"/>
<rect x="135.332" y="28.0332" width="210.21" height="9.44356" transform="rotate(51.5435 135.332 28.0332)" fill="#EB4A2F"/>
<rect x="157.038" y="11.3242" width="210.21" height="9.44356" transform="rotate(51.5435 157.038 11.3242)" fill="#EB4A2F"/>
<rect x="178.743" y="-5.38477" width="210.21" height="9.44356" transform="rotate(51.5435 178.743 -5.38477)" fill="#EB4A2F"/>
<rect x="200.448" y="-22.0947" width="210.21" height="9.44356" transform="rotate(51.5435 200.448 -22.0947)" fill="#EB4A2F"/>
<rect x="222.153" y="-38.8047" width="210.21" height="9.44356" transform="rotate(51.5435 222.153 -38.8047)" fill="#EB4A2F"/>
<rect x="243.859" y="-55.5137" width="210.21" height="9.44356" transform="rotate(51.5435 243.859 -55.5137)" fill="#EB4A2F"/>
<rect x="265.564" y="-72.2227" width="210.21" height="9.44356" transform="rotate(51.5435 265.564 -72.2227)" fill="#EB4A2F"/>
</g>
<defs>
<clipPath id="clip0_1675_520">
<rect width="329" height="268" rx="20" fill="white"/>
</clipPath>
</defs>
</svg>
