<svg width="276" height="184" viewBox="0 0 276 184" fill="none" xmlns="http://www.w3.org/2000/svg">
<g clip-path="url(#clip0_1726_112)">
<rect x="230" y="138" width="46" height="46" fill="#D9D9D9"/>
<rect x="230" y="138" width="46" height="46" fill="#D9D9D9"/>
<rect x="230" y="46" width="46" height="46" fill="#D9D9D9"/>
<rect x="230" y="46" width="46" height="46" fill="#D9D9D9"/>
<rect x="230" y="92" width="46" height="46" fill="#F4ECD5"/>
<rect x="230" y="92" width="46" height="46" fill="#F4ECD5"/>
<rect x="230" width="46" height="46" fill="#F4ECD5"/>
<rect x="230" width="46" height="46" fill="#F4ECD5"/>
<rect x="184" y="138" width="46" height="46" fill="#F4ECD5"/>
<rect x="184" y="138" width="46" height="46" fill="#F4ECD5"/>
<rect x="184" y="46" width="46" height="46" fill="#F4ECD5"/>
<rect x="184" y="46" width="46" height="46" fill="#F4ECD5"/>
<rect x="184" y="92" width="46" height="46" fill="#D9D9D9"/>
<rect x="184" y="92" width="46" height="46" fill="#D9D9D9"/>
<rect x="184" width="46" height="46" fill="#D9D9D9"/>
<rect x="184" width="46" height="46" fill="#D9D9D9"/>
<rect x="138" y="138" width="46" height="46" fill="#D9D9D9"/>
<rect x="138" y="138" width="46" height="46" fill="#D9D9D9"/>
<rect x="138" y="46" width="46" height="46" fill="#D9D9D9"/>
<rect x="138" y="46" width="46" height="46" fill="#D9D9D9"/>
<rect x="138" y="92" width="46" height="46" fill="#F4ECD5"/>
<rect x="138" y="92" width="46" height="46" fill="#F4ECD5"/>
<rect x="138" width="46" height="46" fill="#F4ECD5"/>
<rect x="138" width="46" height="46" fill="#F4ECD5"/>
<rect x="92" y="138" width="46" height="46" fill="#F4ECD5"/>
<rect x="92" y="138" width="46" height="46" fill="#F4ECD5"/>
<rect x="92" y="46" width="46" height="46" fill="#F4ECD5"/>
<rect x="92" y="46" width="46" height="46" fill="#F4ECD5"/>
<rect x="92" y="92" width="46" height="46" fill="#D9D9D9"/>
<rect x="92" y="92" width="46" height="46" fill="#D9D9D9"/>
<rect x="92" width="46" height="46" fill="#D9D9D9"/>
<rect x="92" width="46" height="46" fill="#D9D9D9"/>
<rect x="46" y="138" width="46" height="46" fill="#D9D9D9"/>
<rect x="46" y="138" width="46" height="46" fill="#D9D9D9"/>
<rect x="46" y="46" width="46" height="46" fill="#D9D9D9"/>
<rect x="46" y="46" width="46" height="46" fill="#D9D9D9"/>
<rect x="46" y="92" width="46" height="46" fill="#F4ECD5"/>
<rect x="46" y="92" width="46" height="46" fill="#F4ECD5"/>
<rect x="46" width="46" height="46" fill="#F4ECD5"/>
<rect x="46" width="46" height="46" fill="#F4ECD5"/>
<rect y="138" width="46" height="46" fill="#F4ECD5"/>
<rect y="138" width="46" height="46" fill="#F4ECD5"/>
<rect y="46" width="46" height="46" fill="#F4ECD5"/>
<rect y="46" width="46" height="46" fill="#F4ECD5"/>
<rect y="92" width="46" height="46" fill="#D9D9D9"/>
<rect y="92" width="46" height="46" fill="#D9D9D9"/>
<rect width="46" height="46" fill="#D9D9D9"/>
<rect width="46" height="46" fill="#D9D9D9"/>
</g>
<defs>
<clipPath id="clip0_1726_112">
<rect width="276" height="184" fill="white"/>
</clipPath>
</defs>
</svg>
