<svg width="1512" height="677" viewBox="0 0 1512 677" fill="none" xmlns="http://www.w3.org/2000/svg">
<path d="M955.16 5.63477H1036.26V694.589H955.16V5.63477Z" fill="#F4ECD5"/>
<path d="M1117.36 5.63477H1198.45V694.589H1117.36V5.63477Z" fill="#F4ECD5"/>
<path d="M1279.55 5.63477H1360.64V694.589H1279.55V5.63477Z" fill="#F4ECD5"/>
<path d="M1441.74 5.63477H1522.84V694.589H1441.74V5.63477Z" fill="#F4ECD5"/>
<path d="M306.387 5.63477H387.483V694.589H306.387V5.63477Z" fill="#F4ECD5"/>
<path d="M468.582 5.63477H549.679V694.589H468.582V5.63477Z" fill="#F4ECD5"/>
<path d="M-18 0H63.0968V687.546H-18V0Z" fill="#F4ECD5"/>
<path d="M630.773 5.63477H711.87V694.589H630.773V5.63477Z" fill="#F4ECD5"/>
<path d="M144.195 0H225.292V687.546H144.195V0Z" fill="#F4ECD5"/>
<path d="M792.969 5.63477H874.066V694.589H792.969V5.63477Z" fill="#F4ECD5"/>
</svg>
