<svg width="389" height="693" viewBox="0 0 389 693" fill="none" xmlns="http://www.w3.org/2000/svg">
<g clip-path="url(#clip0_1725_788)">
<rect x="356" y="647" width="46" height="46" fill="#F4ECD5"/>
<rect x="356" y="141" width="46" height="46" fill="#D9D9D9"/>
<rect x="356" y="555" width="46" height="46" fill="#F4ECD5"/>
<rect x="356" y="49" width="46" height="46" fill="#D9D9D9"/>
<rect x="356" y="601" width="46" height="46" fill="#D9D9D9"/>
<rect x="356" y="95" width="46" height="46" fill="#F4ECD5"/>
<rect x="356" y="509" width="46" height="46" fill="#D9D9D9"/>
<rect x="356" y="3" width="46" height="46" fill="#F4ECD5"/>
<rect x="356" y="463" width="46" height="46" fill="#F4ECD5"/>
<rect x="356" y="417" width="46" height="46" fill="#D9D9D9"/>
<rect x="356" y="371" width="46" height="46" fill="#F4ECD5"/>
<rect x="356" y="325" width="46" height="46" fill="#D9D9D9"/>
<rect x="356" y="279" width="46" height="46" fill="#F4ECD5"/>
<rect x="356" y="233" width="46" height="46" fill="#D9D9D9"/>
<rect x="356" y="187" width="46" height="46" fill="#F4ECD5"/>
<rect x="310" y="647" width="46" height="46" fill="#D9D9D9"/>
<rect x="310" y="141" width="46" height="46" fill="#F4ECD5"/>
<rect x="310" y="555" width="46" height="46" fill="#D9D9D9"/>
<rect x="310" y="49" width="46" height="46" fill="#F4ECD5"/>
<rect x="310" y="601" width="46" height="46" fill="#F4ECD5"/>
<rect x="310" y="95" width="46" height="46" fill="#D9D9D9"/>
<rect x="310" y="509" width="46" height="46" fill="#F4ECD5"/>
<rect x="310" y="3" width="46" height="46" fill="#D9D9D9"/>
<rect x="264" y="647" width="46" height="46" fill="#F4ECD5"/>
<rect x="264" y="141" width="46" height="46" fill="#D9D9D9"/>
<rect x="264" y="555" width="46" height="46" fill="#F4ECD5"/>
<rect x="264" y="49" width="46" height="46" fill="#D9D9D9"/>
<rect x="264" y="601" width="46" height="46" fill="#D9D9D9"/>
<rect x="264" y="95" width="46" height="46" fill="#F4ECD5"/>
<rect x="264" y="509" width="46" height="46" fill="#D9D9D9"/>
<rect x="264" y="3" width="46" height="46" fill="#F4ECD5"/>
<rect x="218" y="647" width="46" height="46" fill="#D9D9D9"/>
<rect x="218" y="141" width="46" height="46" fill="#F4ECD5"/>
<rect x="218" y="555" width="46" height="46" fill="#D9D9D9"/>
<rect x="218" y="49" width="46" height="46" fill="#F4ECD5"/>
<rect x="218" y="601" width="46" height="46" fill="#F4ECD5"/>
<rect x="218" y="95" width="46" height="46" fill="#D9D9D9"/>
<rect x="218" y="509" width="46" height="46" fill="#F4ECD5"/>
<rect x="218" y="3" width="46" height="46" fill="#D9D9D9"/>
<rect x="172" y="647" width="46" height="46" fill="#F4ECD5"/>
<rect x="172" y="141" width="46" height="46" fill="#D9D9D9"/>
<rect x="172" y="555" width="46" height="46" fill="#F4ECD5"/>
<rect x="172" y="49" width="46" height="46" fill="#D9D9D9"/>
<rect x="172" y="601" width="46" height="46" fill="#D9D9D9"/>
<rect x="172" y="95" width="46" height="46" fill="#F4ECD5"/>
<rect x="172" y="509" width="46" height="46" fill="#D9D9D9"/>
<rect x="172" y="3" width="46" height="46" fill="#F4ECD5"/>
<rect x="126" y="647" width="46" height="46" fill="#D9D9D9"/>
<rect x="126" y="141" width="46" height="46" fill="#F4ECD5"/>
<rect x="126" y="555" width="46" height="46" fill="#D9D9D9"/>
<rect x="126" y="49" width="46" height="46" fill="#F4ECD5"/>
<rect x="126" y="601" width="46" height="46" fill="#F4ECD5"/>
<rect x="126" y="95" width="46" height="46" fill="#D9D9D9"/>
<rect x="126" y="509" width="46" height="46" fill="#F4ECD5"/>
<rect x="126" y="3" width="46" height="46" fill="#D9D9D9"/>
<rect x="80" y="647" width="46" height="46" fill="#F4ECD5"/>
<rect x="80" y="141" width="46" height="46" fill="#D9D9D9"/>
<rect x="80" y="555" width="46" height="46" fill="#F4ECD5"/>
<rect x="80" y="49" width="46" height="46" fill="#D9D9D9"/>
<rect x="80" y="601" width="46" height="46" fill="#D9D9D9"/>
<rect x="80" y="95" width="46" height="46" fill="#F4ECD5"/>
<rect x="80" y="509" width="46" height="46" fill="#D9D9D9"/>
<rect x="80" y="3" width="46" height="46" fill="#F4ECD5"/>
<rect x="34" y="647" width="46" height="46" fill="#D9D9D9"/>
<rect x="34" y="141" width="46" height="46" fill="#F4ECD5"/>
<rect x="34" y="555" width="46" height="46" fill="#D9D9D9"/>
<rect x="34" y="49" width="46" height="46" fill="#F4ECD5"/>
<rect x="34" y="601" width="46" height="46" fill="#F4ECD5"/>
<rect x="34" y="95" width="46" height="46" fill="#D9D9D9"/>
<rect x="34" y="509" width="46" height="46" fill="#F4ECD5"/>
<rect x="34" y="3" width="46" height="46" fill="#D9D9D9"/>
<rect x="-12" y="647" width="46" height="46" fill="#F4ECD5"/>
<rect x="-12" y="141" width="46" height="46" fill="#D9D9D9"/>
<rect x="-12" y="555" width="46" height="46" fill="#F4ECD5"/>
<rect x="-12" y="49" width="46" height="46" fill="#D9D9D9"/>
<rect x="-12" y="601" width="46" height="46" fill="#D9D9D9"/>
<rect x="-12" y="95" width="46" height="46" fill="#F4ECD5"/>
<rect x="-12" y="509" width="46" height="46" fill="#D9D9D9"/>
<rect x="-12" y="3" width="46" height="46" fill="#F4ECD5"/>
<rect x="-12" y="463" width="46" height="46" fill="#F4ECD5"/>
<rect x="-12" y="417" width="46" height="46" fill="#D9D9D9"/>
<rect x="-12" y="417" width="46" height="46" fill="#D9D9D9"/>
<rect x="-12" y="371" width="46" height="46" fill="#F4ECD5"/>
<rect x="-12" y="325" width="46" height="46" fill="#D9D9D9"/>
<rect x="-12" y="279" width="46" height="46" fill="#F4ECD5"/>
<rect x="-12" y="233" width="46" height="46" fill="#D9D9D9"/>
<rect x="-12" y="187" width="46" height="46" fill="#F4ECD5"/>
</g>
<defs>
<clipPath id="clip0_1725_788">
<rect width="389" height="693" fill="white"/>
</clipPath>
</defs>
</svg>
