<svg width="329" height="227" viewBox="0 0 329 227" fill="none" xmlns="http://www.w3.org/2000/svg">
<rect class="square" width="47" height="45.4" fill="#F4ECD5"/>
<rect class="square" y="45.4004" width="47" height="45.4" fill="#FFC25C"/>
<rect class="square" y="90.7998" width="47" height="45.4" fill="#F4ECD5"/>
<rect class="square" y="136.2" width="47" height="45.4" fill="#FFC25C"/>
<rect class="square" y="181.6" width="47" height="45.4" fill="#F4ECD5"/>
<rect class="square" x="47" width="47" height="45.4" fill="#FFC25C"/>
<rect class="square" x="47" y="45.4004" width="47" height="45.4" fill="#F4ECD5"/>
<rect class="square" x="47" y="90.7998" width="47" height="45.4" fill="#FFC25C"/>
<rect class="square" x="47" y="136.2" width="47" height="45.4" fill="#F4ECD5"/>
<rect class="square" x="47" y="181.6" width="47" height="45.4" fill="#FFC25C"/>
<rect class="square" x="94" width="47" height="45.4" fill="#F4ECD5"/>
<rect class="square" x="94" y="45.4004" width="47" height="45.4" fill="#FFC25C"/>
<rect class="square" x="94" y="90.7998" width="47" height="45.4" fill="#F4ECD5"/>
<rect class="square" x="94" y="136.2" width="47" height="45.4" fill="#FFC25C"/>
<rect class="square" x="94" y="181.6" width="47" height="45.4" fill="#F4ECD5"/>
<rect class="square" x="141" width="47" height="45.4" fill="#FFC25C"/>
<rect class="square" x="141" y="45.4004" width="47" height="45.4" fill="#F4ECD5"/>
<rect class="square" x="141" y="90.7998" width="47" height="45.4" fill="#FFC25C"/>
<rect class="square" x="141" y="136.2" width="47" height="45.4" fill="#F4ECD5"/>
<rect class="square" x="141" y="181.6" width="47" height="45.4" fill="#FFC25C"/>
<rect class="square" x="188" width="47" height="45.4" fill="#F4ECD5"/>
<rect class="square" x="188" y="45.4004" width="47" height="45.4" fill="#FFC25C"/>
<rect class="square" x="188" y="90.7998" width="47" height="45.4" fill="#F4ECD5"/>
<rect class="square" x="188" y="136.2" width="47" height="45.4" fill="#FFC25C"/>
<rect class="square" x="188" y="181.6" width="47" height="45.4" fill="#F4ECD5"/>
<rect class="square" x="235" width="47" height="45.4" fill="#FFC25C"/>
<rect class="square" x="235" y="45.4004" width="47" height="45.4" fill="#F4ECD5"/>
<rect class="square" x="235" y="90.7998" width="47" height="45.4" fill="#FFC25C"/>
<rect class="square" x="235" y="136.2" width="47" height="45.4" fill="#F4ECD5"/>
<rect class="square" x="235" y="181.6" width="47" height="45.4" fill="#FFC25C"/>
<rect class="square" x="282" width="47" height="45.4" fill="#F4ECD5"/>
<rect class="square" x="282" y="45.4004" width="47" height="45.4" fill="#FFC25C"/>
<rect class="square" x="282" y="90.7998" width="47" height="45.4" fill="#F4ECD5"/>
<rect class="square" x="282" y="136.2" width="47" height="45.4" fill="#FFC25C"/>
<rect class="square" x="282" y="181.6" width="47" height="45.4" fill="#F4ECD5"/>
</svg>
