<svg width="883" height="511" viewBox="0 0 883 511" fill="none" xmlns="http://www.w3.org/2000/svg">
<rect width="147.119" height="85.2802" fill="#FBB03B"/>
<rect y="85.2803" width="147.119" height="85.2802" fill="#F15A24"/>
<rect y="170.561" width="147.119" height="85.2802" fill="#FBB03B"/>
<rect y="255.842" width="147.119" height="85.2802" fill="#F15A24"/>
<rect x="147.118" width="147.119" height="85.2802" fill="#F15A24"/>
<rect x="147.118" y="85.2803" width="147.119" height="85.2802" fill="#FBB03B"/>
<rect x="147.118" y="170.561" width="147.119" height="85.2802" fill="#F15A24"/>
<rect x="147.118" y="255.842" width="147.119" height="85.2802" fill="#FBB03B"/>
<rect x="294.238" width="147.119" height="85.2802" fill="#FBB03B"/>
<rect x="294.238" y="85.2803" width="147.119" height="85.2802" fill="#F15A24"/>
<rect x="294.238" y="170.561" width="147.119" height="85.2802" fill="#FBB03B"/>
<rect x="294.238" y="255.842" width="147.119" height="85.2802" fill="#F15A24"/>
<rect x="441.356" width="147.119" height="85.2802" fill="#F15A24"/>
<rect x="441.356" y="85.2803" width="147.119" height="85.2802" fill="#FBB03B"/>
<rect x="441.356" y="170.561" width="147.119" height="85.2802" fill="#F15A24"/>
<rect x="441.356" y="255.842" width="147.119" height="85.2802" fill="#FBB03B"/>
<rect x="588.477" width="147.119" height="85.2802" fill="#FBB03B"/>
<rect x="588.477" y="85.2803" width="147.119" height="85.2802" fill="#F15A24"/>
<rect x="588.477" y="170.561" width="147.119" height="85.2802" fill="#FBB03B"/>
<rect x="588.477" y="255.842" width="147.119" height="85.2802" fill="#F15A24"/>
<rect x="735.596" width="147.119" height="85.2802" fill="#F15A24"/>
<rect x="735.596" y="85.2803" width="147.119" height="85.2802" fill="#FBB03B"/>
<rect x="735.596" y="170.561" width="147.119" height="85.2802" fill="#F15A24"/>
<rect x="735.596" y="255.842" width="147.119" height="85.2802" fill="#FBB03B"/>
<rect y="340" width="147.119" height="85.2802" fill="#FBB03B"/>
<rect y="425.28" width="147.119" height="85.2802" fill="#F15A24"/>
<rect x="147.118" y="340" width="147.119" height="85.2802" fill="#F15A24"/>
<rect x="147.118" y="425.28" width="147.119" height="85.2802" fill="#FBB03B"/>
<rect x="294.238" y="340" width="147.119" height="85.2802" fill="#FBB03B"/>
<rect x="294.238" y="425.28" width="147.119" height="85.2802" fill="#F15A24"/>
<rect x="441.356" y="340" width="147.119" height="85.2802" fill="#F15A24"/>
<rect x="441.356" y="425.28" width="147.119" height="85.2802" fill="#FBB03B"/>
<rect x="588.477" y="340" width="147.119" height="85.2802" fill="#FBB03B"/>
<rect x="588.477" y="425.28" width="147.119" height="85.2802" fill="#F15A24"/>
<rect x="735.596" y="340" width="147.119" height="85.2802" fill="#F15A24"/>
<rect x="735.596" y="425.28" width="147.119" height="85.2802" fill="#FBB03B"/>
</svg>
